<?xml version="1.0" encoding="UTF-8" standalone="no"?>
<svg
   xmlns:dc="http://purl.org/dc/elements/1.1/"
   xmlns:cc="http://creativecommons.org/ns#"
   xmlns:rdf="http://www.w3.org/1999/02/22-rdf-syntax-ns#"
   xmlns:svg="http://www.w3.org/2000/svg"
   xmlns="http://www.w3.org/2000/svg"
   xmlns:sodipodi="http://sodipodi.sourceforge.net/DTD/sodipodi-0.dtd"
   xmlns:inkscape="http://www.inkscape.org/namespaces/inkscape"
   id="Layer_1"
   data-name="Layer 1"
   width="300"
   height="300"
   viewBox="0 0 300 300"
   version="1.1"
   sodipodi:docname="AppIcon_colors.svg"
   inkscape:version="0.92.4 (5da689c313, 2019-01-14)">
  <metadata
     id="metadata1768">
    <rdf:RDF>
      <cc:Work
         rdf:about="">
        <dc:format>image/svg+xml</dc:format>
        <dc:type
           rdf:resource="http://purl.org/dc/dcmitype/StillImage" />
        <dc:title>Artboard 2</dc:title>
      </cc:Work>
    </rdf:RDF>
  </metadata>
  <sodipodi:namedview
     pagecolor="#ffffff"
     bordercolor="#666666"
     borderopacity="1"
     objecttolerance="10"
     gridtolerance="10"
     guidetolerance="10"
     inkscape:pageopacity="0"
     inkscape:pageshadow="2"
     inkscape:window-width="2560"
     inkscape:window-height="1377"
     id="namedview1766"
     showgrid="false"
     inkscape:zoom="1.5733333"
     inkscape:cx="-202.9012"
     inkscape:cy="109.82763"
     inkscape:window-x="-8"
     inkscape:window-y="-8"
     inkscape:window-maximized="1"
     inkscape:current-layer="Layer_1" />
  <defs
     id="defs1719">
    <style
       id="style1717">.cls-1{fill:#3b3a39;}.cls-2{fill:none;stroke:#3b3a39;stroke-miterlimit:10;stroke-width:6px;}</style>
  </defs>
  <title
     id="title1721">Artboard 2</title>
  <rect
     class="cls-1"
     x="27"
     y="61"
     width="48"
     height="28"
     rx="6"
     id="rect1737"
     style="fill:#92d050;fill-opacity:1" />
  <rect
     class="cls-1"
     x="91"
     y="136"
     width="48"
     height="28"
     rx="6"
     id="rect1739"
     style="fill:#ffc000;fill-opacity:1" />
  <rect
     class="cls-1"
     x="27"
     y="211"
     width="48"
     height="28"
     rx="6"
     id="rect1751"
     style="fill:#f26e6e;fill-opacity:1" />
  <path
     class="cls-1"
     d="M215.82046,150l-16.61763,16.61763-2.05886,2.05881a25,25,0,1,1,0-37.35293l2.05886,2.05882Z"
     id="path1723"
     style="fill:#0066ff" />
  <rect
     class="cls-1"
     x="223"
     y="125"
     width="50"
     height="50"
     rx="6"
     id="rect1725"
     style="fill:#0066ff" />
  <path
     class="cls-2"
     d="M215.82046,150l-16.61763,16.61763-2.05886,2.05881a25,25,0,1,1,0-37.35293l2.05886,2.05882Z"
     id="path1727"
     style="fill:#0078d4;fill-opacity:0" />
  <rect
     class="cls-2"
     x="223"
     y="125"
     width="50"
     height="50"
     rx="6"
     id="rect1729"
     style="fill:#0078d4;fill-opacity:0" />
  <rect
     class="cls-2"
     x="27"
     y="136"
     width="48"
     height="28"
     rx="6"
     id="rect1731" />
  <rect
     class="cls-2"
     x="27"
     y="61"
     width="48"
     height="28"
     rx="6"
     id="rect1733" />
  <rect
     class="cls-2"
     x="91"
     y="136"
     width="48"
     height="28"
     rx="6"
     id="rect1735" />
  <rect
     class="cls-2"
     x="91"
     y="61"
     width="48"
     height="28"
     rx="6"
     id="rect1741" />
  <polyline
     class="cls-2"
     points="139 75 155 75 173.657 106.66"
     id="polyline1743" />
  <polyline
     class="cls-2"
     points="177.894 90.227 173.657 106.66 157.224 102.424"
     id="polyline1745" />
  <line
     class="cls-2"
     x1="75"
     y1="75.0495"
     x2="91"
     y2="75"
     id="line1747" />
  <rect
     class="cls-2"
     x="27"
     y="211"
     width="48"
     height="28"
     rx="6"
     id="rect1749" />
  <rect
     class="cls-2"
     x="91"
     y="211"
     width="48"
     height="28"
     rx="6"
     id="rect1753" />
  <polyline
     class="cls-2"
     points="139 225 155 225 173.657 193.34"
     id="polyline1755" />
  <polyline
     class="cls-2"
     points="177.894 209.773 173.657 193.34 157.224 197.576"
     id="polyline1757" />
  <line
     class="cls-2"
     x1="75"
     y1="224.9505"
     x2="91"
     y2="225"
     id="line1759" />
  <line
     class="cls-2"
     x1="75"
     y1="150"
     x2="91"
     y2="150"
     id="line1761" />
  <line
     class="cls-2"
     x1="139"
     y1="150"
     x2="155.52634"
     y2="150"
     id="line1763" />
</svg>
