<svg id="Layer_1" data-name="Layer 1" xmlns="http://www.w3.org/2000/svg" xmlns:xlink="http://www.w3.org/1999/xlink" viewBox="0 0 300 300">
  <defs>
    <style>
      .cls-1 {
        fill: #fff;
      }

      .cls-2 {
        fill: url(#linear-gradient);
      }

      .cls-3 {
        fill: url(#linear-gradient-2);
      }

      .cls-4 {
        fill: url(#linear-gradient-3);
      }

      .cls-5 {
        fill: url(#linear-gradient-4);
      }

      .cls-6 {
        fill: url(#linear-gradient-5);
      }
    </style>
    <linearGradient id="linear-gradient" x1="171.6" y1="100.93" x2="174.05" y2="100.93" gradientUnits="userSpaceOnUse">
      <stop offset="0" stop-color="#0093f4"/>
      <stop offset="1" stop-color="#46caf2"/>
    </linearGradient>
    <linearGradient id="linear-gradient-2" x1="47.12" y1="150.02" x2="252.87" y2="150.02" xlink:href="#linear-gradient"/>
    <linearGradient id="linear-gradient-3" x1="47.14" y1="213.88" x2="190.06" y2="213.88" xlink:href="#linear-gradient"/>
    <linearGradient id="linear-gradient-4" x1="47.13" y1="86.17" x2="189.97" y2="86.17" xlink:href="#linear-gradient"/>
    <linearGradient id="linear-gradient-5" x1="174.05" y1="101.76" x2="177.56" y2="101.76" xlink:href="#linear-gradient"/>
  </defs>
  <g>
    <g>
      <path class="cls-1" d="M266.76.5H33.24A32.55,32.55,0,0,0,7.47,13.17a31.91,31.91,0,0,0-7,20.07V266.75A32.77,32.77,0,0,0,33.24,299.5H266.76a33.58,33.58,0,0,0,8.06-1,32.69,32.69,0,0,0,24.68-31.74V33.24A32.77,32.77,0,0,0,266.76.5ZM184.58,108.21a2.45,2.45,0,0,1-1.06.27,1.1,1.1,0,0,1-.6-.1l-12.55-3.59,0,0-4.11-1.12,1.12-4.17,4.2,1.13,2.45.67,3.51,1v0l-10.15-18h-9V94.8a3.66,3.66,0,0,1-3.59,3.59H114.1a3.67,3.67,0,0,1-3.6-3.59V84.18H95V94.8a3.66,3.66,0,0,1-3.59,3.59H50.72a3.66,3.66,0,0,1-3.59-3.59V67.45a3.66,3.66,0,0,1,3.59-3.59H91.39A3.66,3.66,0,0,1,95,67.45v10.6H110.5V67.45a3.67,3.67,0,0,1,3.6-3.59h40.68a3.66,3.66,0,0,1,3.59,3.59v10.6h10.79a3.22,3.22,0,0,1,2.71,1.57L183,99.53l1.74-6.4h0l1-3.8L190,90.46l-1,3.79,0,0-3.33,12.54A2.51,2.51,0,0,1,184.58,108.21Z"/>
      <rect class="cls-1" x="52.92" y="69.63" width="36.29" height="22.97"/>
      <rect class="cls-1" x="116.29" y="69.63" width="36.29" height="22.97"/>
    </g>
    <g>
      <g>
        <path class="cls-2" d="M171.6,100.59h0l2.45.67Z"/>
        <path class="cls-3" d="M249.54,130.38H216.75a3.42,3.42,0,0,0-3.24,3.24v15.26a4,4,0,0,0-.61-1l-9-9.64a2.57,2.57,0,0,0-.44-.53l-2.37-2.45a19,19,0,0,0-8.68-4.38,19.18,19.18,0,0,0-4.29-.53A19.63,19.63,0,0,0,168.71,147H158.37V136.34a3.67,3.67,0,0,0-3.59-3.59H114.1a3.66,3.66,0,0,0-3.59,3.59V147H95V136.34a3.67,3.67,0,0,0-3.6-3.59H50.72a3.67,3.67,0,0,0-3.6,3.59v27.35a3.68,3.68,0,0,0,3.6,3.6H91.39a3.68,3.68,0,0,0,3.6-3.6v-10.6h15.52v10.6a3.67,3.67,0,0,0,3.59,3.6h40.68a3.68,3.68,0,0,0,3.59-3.6v-10.6h10.34a19.62,19.62,0,0,0,19.38,16.56,18.65,18.65,0,0,0,4.29-.52,19,19,0,0,0,8.94-4.65l2.11-2.19c.17-.09.26-.26.44-.44l9-9.73a3.74,3.74,0,0,0,.61-1v15.25a3.41,3.41,0,0,0,3.24,3.24h32.79a3.49,3.49,0,0,0,3.33-3.24V133.62A3.5,3.5,0,0,0,249.54,130.38ZM89.2,161.5H52.91v-23H89.2Zm63.38,0H116.29v-23h36.29ZM199,158c-.09.18-.18.27-.27.44l-1.57,1.67a13.46,13.46,0,0,1-6,3.07,13.94,13.94,0,0,1-3.07.35,13.5,13.5,0,0,1,0-27,12.15,12.15,0,0,1,3,.35,14.86,14.86,0,0,1,5.78,2.8l1.76,1.93a1.69,1.69,0,0,1,.35.44l7.45,8Zm47.77,5.53H219.65v-27h27.08Z"/>
        <path class="cls-4" d="M187.29,199.41l-1.63-6.18a2.4,2.4,0,0,0-1.08-1.33,2.17,2.17,0,0,0-1.65-.25l-6.58,1.91-6,1.74-4.19,1.23,1.25,4.22,4.14-1.21,6-1.78L167.4,215.92h-9.06V205.23a3.62,3.62,0,0,0-3.58-3.58H114.1a3.62,3.62,0,0,0-3.58,3.58v10.6H95v-10.6a3.62,3.62,0,0,0-3.57-3.58H50.72a3.63,3.63,0,0,0-3.58,3.58v27.35a3.63,3.63,0,0,0,3.58,3.58H91.41A3.62,3.62,0,0,0,95,232.58V222h15.54v10.62a3.62,3.62,0,0,0,3.58,3.58h40.66a3.62,3.62,0,0,0,3.58-3.58V222.06h10.79a3.19,3.19,0,0,0,2.72-1.56L183,200.56l1.74,6.43,1,3.77,4.28-1.15Zm-98.09,31H52.93V207.43H89.2Zm63.37,0H116.29V207.43h36.28Z"/>
      </g>
      <g>
        <path class="cls-5" d="M190,90.45l-4.17-1.12-1,3.8h0L183,99.53,171.87,79.62a3.22,3.22,0,0,0-2.71-1.57H158.37V67.45a3.66,3.66,0,0,0-3.59-3.59H114.1a3.67,3.67,0,0,0-3.6,3.59v10.6H95V67.45a3.66,3.66,0,0,0-3.59-3.59H50.72a3.66,3.66,0,0,0-3.59,3.59V94.8a3.66,3.66,0,0,0,3.59,3.59H91.39A3.66,3.66,0,0,0,95,94.8V84.18H110.5V94.8a3.67,3.67,0,0,0,3.6,3.59h40.68a3.66,3.66,0,0,0,3.59-3.59V84.18h9l10.15,18v0l-3.51-1-2.45-.67-4.2-1.13-1.12,4.17,4.11,1.12,0,0,12.55,3.59a1.1,1.1,0,0,0,.6.1,2.45,2.45,0,0,0,1.06-.27,2.51,2.51,0,0,0,1.06-1.4L189,94.27l0,0ZM89.21,92.6H52.92v-23H89.21Zm63.37,0H116.29v-23h36.29Z"/>
        <polygon class="cls-6" points="177.56 102.25 174.05 101.27 177.55 102.22 177.56 102.25"/>
      </g>
    </g>
  </g>
</svg>
