<?xml version="1.0" encoding="UTF-8" standalone="no"?>
<svg
   xmlns:dc="http://purl.org/dc/elements/1.1/"
   xmlns:cc="http://creativecommons.org/ns#"
   xmlns:rdf="http://www.w3.org/1999/02/22-rdf-syntax-ns#"
   xmlns:svg="http://www.w3.org/2000/svg"
   xmlns="http://www.w3.org/2000/svg"
   xmlns:sodipodi="http://sodipodi.sourceforge.net/DTD/sodipodi-0.dtd"
   xmlns:inkscape="http://www.inkscape.org/namespaces/inkscape"
   id="Layer_1"
   data-name="Layer 1"
   width="40"
   height="28"
   viewBox="0 0 40 28"
   version="1.1"
   sodipodi:docname="MatrixColors_40x28.svg"
   inkscape:version="0.92.4 (5da689c313, 2019-01-14)">
  <metadata
     id="metadata27">
    <rdf:RDF>
      <cc:Work
         rdf:about="">
        <dc:format>image/svg+xml</dc:format>
        <dc:type
           rdf:resource="http://purl.org/dc/dcmitype/StillImage" />
        <dc:title>4B - Matrix </dc:title>
      </cc:Work>
    </rdf:RDF>
  </metadata>
  <sodipodi:namedview
     pagecolor="#ffffff"
     bordercolor="#666666"
     borderopacity="1"
     objecttolerance="10"
     gridtolerance="10"
     guidetolerance="10"
     inkscape:pageopacity="0"
     inkscape:pageshadow="2"
     inkscape:window-width="2560"
     inkscape:window-height="1377"
     id="namedview25"
     showgrid="false"
     inkscape:zoom="20.081833"
     inkscape:cx="-2.8728632"
     inkscape:cy="19.537849"
     inkscape:window-x="-8"
     inkscape:window-y="-8"
     inkscape:window-maximized="1"
     inkscape:current-layer="Layer_1" />
  <defs
     id="defs4">
    <style
       id="style2">.cls-1{fill:#231f20;}</style>
  </defs>
  <title
     id="title6">4B - Matrix </title>
  <path
     class="cls-1"
     d="M20,12h3V9a3,3,0,1,0-3,3Z"
     id="path8"
     style="fill:#ffff00;fill-opacity:1;stroke:#ffdf2a;stroke-opacity:1" />
  <path
     class="cls-1"
     d="M17,22a3,3,0,0,0,6,0V19H20A3,3,0,0,0,17,22Z"
     id="path10"
     style="fill:#4f81bd;fill-opacity:1;stroke:#345b94;stroke-opacity:1" />
  <circle
     class="cls-1"
     cx="33"
     cy="9"
     r="3"
     id="circle12"
     style="fill:#92d050;fill-opacity:1;stroke:#29ab3c;stroke-opacity:1" />
  <rect
     class="cls-1"
     x="2"
     y="10"
     width="5"
     height="2"
     id="rect14" />
  <rect
     class="cls-1"
     x="2"
     y="6"
     width="9"
     height="2"
     id="rect16" />
  <path
     class="cls-1"
     d="M38,1H2V3H13V15H2v1H13V27h1V16H26V27h1V16H38V15H27V3H38ZM26,15H14V3H26Z"
     id="path18" />
  <rect
     class="cls-1"
     x="2"
     y="23"
     width="5"
     height="2"
     id="rect20" />
  <rect
     class="cls-1"
     x="2"
     y="19"
     width="9"
     height="2"
     id="rect22" />
</svg>
